# xmcd
#
# Track frame offsets:
#	150
#	13035
#	25084
#	39994
#	54507
#	71802
#	85754
#	98717
#	113601
#	132353
#	144196
#	160224
#	171704
#
# Disc length: 2438 seconds
#
# Revision: 1
# Processed by: cddbd v1.5.1PL0 Copyright (c) Steve Scherf et al.
# Submitted via: audiograbber 1.83.01
#
DISCID=a609840d
DTITLE=The Lucky Stars - Stay Out Late
DYEAR=2005
DGENRE=Country
TTITLE0=Rarin' To Go
TTITLE1=Real Good Lookin'
TTITLE2=Teacher's Pet
TTITLE3=Am I In Love (Or Am I Just Hungover)?
TTITLE4=Out Of Your Mind
TTITLE5=The Tatooed Lady
TTITLE6=(Mama's Got) The Run Down Daddy Blues
TTITLE7=Used To Be
TTITLE8=My Poor Old Haunted Heart
TTITLE9=Don't Count Your Chickens
TTITLE10=One Man's Blues
TTITLE11=One Of These Days
TTITLE12=Stay Out Late
EXTD=
EXTT0=
EXTT1=
EXTT2=
EXTT3=
EXTT4=
EXTT5=
EXTT6=
EXTT7=
EXTT8=
EXTT9=
EXTT10=
EXTT11=
EXTT12=
PLAYORDER=
